<?xml version="1.0" encoding="UTF-8"?>
<svg xmlns="http://www.w3.org/2000/svg" version="1.1" viewBox="0 0 1253.85 303.37">
  <!-- Generator: Adobe Illustrator 28.7.1, SVG Export Plug-In . SVG Version: 1.2.0 Build 142)  -->
  <g>
    <g id="Layer_1">
      <g fill="#1878E7">
        <path d="M1227.89,0h25.96l-93.26,105.76,93.26,111.53h-25.48c-3.36,0-6.25-1.44-8.17-4.33l-64.42-76.44-62.97,76.44c-2.41,2.88-5.29,4.33-8.66,4.33h-25l91.82-111.53L1056.27,0h26.44C1085.59,0,1088.48,1.44,1090.88,3.85l64.9,72.11,63.94-72.11C1221.64,1.44,1224.53,0,1227.89,0Z"/>
        <path d="M817.64,223.98c-64.9,0-107.2-51.44-107.2-107.2V.48h12.5c6.25,0,11.06,4.81,11.06,11.06v105.24c0,43.27,32.21,79.8,73.55,83.65,5.77.48,10.09,4.81,10.09,10.58v12.98ZM871,0c0,215.85.48,206.67-.96,208.6-5.77,50.48-46.63,94.22-106.72,94.22v-12.98c0-5.77,4.33-10.1,10.1-10.58,41.34-3.85,74.03-40.38,74.03-83.65V11.06C847.44,5.29,852.25,0,858.02,0h12.98Z"/>
        <path d="M499.3,193.68c5.77.48,10.1,5.29,10.1,11.06v12.98c-65.38,0-107.2-51.44-107.2-107.68V0h12.5C420.94,0,425.75,4.81,425.75,10.58v99.45c0,43.27,32.21,80.28,73.55,83.65Z"/>
        <path d="M206.91,48.86c13.46,19.23,20.67,42.79,20.67,65.86,0,5.29.48,9.62-2.88,13.46-2.4,1.92-4.81,3.36-7.69,3.36l-102.44.48v-12.5c0-6.25,4.81-11.06,10.58-11.06l78.41-.48c-1.44-18.27-7.21-36.54-20.67-52.4-10.1-11.54-22.6-20.67-36.54-25.96h-.96c-42.79-16.34-90.86,1.92-112.01,42.78-14.9,28.36-13.46,62.01,3.85,89.42,29.81,47.11,91.82,54.8,132.2,23.08,4.33-3.37,10.58-2.88,14.42,1.44l8.65,9.13C121.34,260.87,16.05,219.04,1.63,132.51-6.54,84.92,16.53,37.32,58.36,14.25,107.87-12.67,170.37-1.62,206.91,48.86Z"/>
      </g>
    </g>
  </g>
</svg>