<svg xmlns="http://www.w3.org/2000/svg" version="1.1" xmlns:xlink="http://www.w3.org/1999/xlink" xmlns:svgjs="http://svgjs.dev/svgjs" width="227.85" height="227.85"><svg xmlns="http://www.w3.org/2000/svg" version="1.1" viewBox="0 0 227.85 227.85">
  <!-- Generator: Adobe Illustrator 28.7.1, SVG Export Plug-In . SVG Version: 1.2.0 Build 142)  -->
  <g>
    <g id="SvgjsG1008">
      <g>
        <path fill="#1878E7" d="M206.91,48.86c13.46,19.23,20.67,42.79,20.67,65.86,0,5.29.48,9.62-2.88,13.46-2.4,1.92-4.81,3.36-7.69,3.36l-102.44.48v-12.5c0-6.25,4.81-11.06,10.58-11.06l78.41-.48c-1.44-18.27-7.21-36.54-20.67-52.4-10.1-11.54-22.6-20.67-36.54-25.96h-.96c-42.79-16.34-90.86,1.92-112.01,42.78-14.9,28.36-13.46,62.01,3.85,89.42,29.81,47.11,91.82,54.8,132.2,23.08,4.33-3.37,10.58-2.88,14.42,1.44l8.65,9.13C121.34,260.87,16.05,219.04,1.63,132.51-6.54,84.92,16.53,37.32,58.36,14.25,107.87-12.67,170.37-1.62,206.91,48.86Z"></path>
      </g>
    </g>
  </g>
</svg><style>@media (prefers-color-scheme: light) { :root { filter: none; } }
@media (prefers-color-scheme: dark) { :root { filter: none; } }
</style></svg>